<svg width="38" height="36" viewBox="0 0 38 36" fill="none" xmlns="http://www.w3.org/2000/svg">
<ellipse cx="19.2264" cy="18" rx="18.5434" ry="18" fill="#EC5598"/>
<path d="M19.2282 13.8978C16.8895 13.8978 15.0031 15.7293 15.0031 18C15.0031 20.2707 16.8895 22.1022 19.2282 22.1022C21.5668 22.1022 23.4532 20.2707 23.4532 18C23.4532 15.7293 21.5668 13.8978 19.2282 13.8978ZM19.2282 20.667C17.7168 20.667 16.4813 19.4709 16.4813 18C16.4813 16.5291 17.7131 15.333 19.2282 15.333C20.7432 15.333 21.975 16.5291 21.975 18C21.975 19.4709 20.7395 20.667 19.2282 20.667ZM24.6116 13.73C24.6116 14.262 24.1703 14.6868 23.6261 14.6868C23.0782 14.6868 22.6406 14.2584 22.6406 13.73C22.6406 13.2016 23.0819 12.7732 23.6261 12.7732C24.1703 12.7732 24.6116 13.2016 24.6116 13.73ZM27.4099 14.7011C27.3474 13.4194 27.0459 12.2841 26.0788 11.3487C25.1153 10.4133 23.946 10.1205 22.6259 10.0562C21.2653 9.98126 17.1873 9.98126 15.8267 10.0562C14.5103 10.1169 13.341 10.4097 12.3739 11.3451C11.4068 12.2805 11.1089 13.4158 11.0427 14.6975C10.9655 16.0185 10.9655 19.9779 11.0427 21.2989C11.1052 22.5806 11.4068 23.7159 12.3739 24.6513C13.341 25.5867 14.5066 25.8795 15.8267 25.9438C17.1873 26.0187 21.2653 26.0187 22.6259 25.9438C23.946 25.8831 25.1153 25.5903 26.0788 24.6513C27.0422 23.7159 27.3437 22.5806 27.4099 21.2989C27.4871 19.9779 27.4871 16.0221 27.4099 14.7011ZM25.6522 22.7163C25.3654 23.416 24.8101 23.9551 24.0857 24.2372C23.001 24.6549 20.4269 24.5585 19.2282 24.5585C18.0294 24.5585 15.4517 24.6513 14.3706 24.2372C13.6498 23.9587 13.0946 23.4196 12.8041 22.7163C12.3739 21.6631 12.4731 19.1639 12.4731 18C12.4731 16.8361 12.3775 14.3334 12.8041 13.2837C13.0909 12.584 13.6462 12.0449 14.3706 11.7628C15.4553 11.3451 18.0294 11.4415 19.2282 11.4415C20.4269 11.4415 23.0046 11.3487 24.0857 11.7628C24.8065 12.0413 25.3617 12.5804 25.6522 13.2837C26.0824 14.3369 25.9832 16.8361 25.9832 18C25.9832 19.1639 26.0824 21.6666 25.6522 22.7163Z" fill="white"/>
</svg>
