<svg width="38" height="36" viewBox="0 0 38 36" fill="none" xmlns="http://www.w3.org/2000/svg">
<ellipse cx="19.3849" cy="18" rx="18.5434" ry="18" fill="#EC5598"/>
<path fill-rule="evenodd" clip-rule="evenodd" d="M19.2919 14.6592L19.2511 14.0076C19.1287 12.3187 20.2029 10.7761 21.9027 10.1777C22.5282 9.96492 23.5888 9.93832 24.2823 10.1245C24.5542 10.2043 25.071 10.4702 25.4381 10.7096L26.1044 11.1485L26.8387 10.9224C27.2466 10.8027 27.7906 10.6032 28.0353 10.4702C28.2664 10.3506 28.4704 10.284 28.4704 10.324C28.4704 10.55 27.9673 11.3213 27.5458 11.7468C26.9746 12.3453 27.1379 12.3985 28.2936 11.9995C28.9872 11.7734 29.0007 11.7734 28.8648 12.0261C28.7831 12.1591 28.3616 12.6245 27.9129 13.0501C27.1514 13.7815 27.1106 13.8613 27.1106 14.473C27.1106 15.4172 26.6483 17.3853 26.186 18.4624C25.3293 20.4838 23.4936 22.5715 21.6579 23.6221C19.0744 25.0982 15.6341 25.4705 12.7378 24.6062C11.7724 24.3136 10.1134 23.5689 10.1134 23.436C10.1134 23.396 10.6165 23.3428 11.2285 23.3296C12.5066 23.303 13.7848 22.9572 14.8726 22.3455L15.607 21.92L14.7638 21.6407C13.5672 21.2417 12.493 20.3242 12.2211 19.4598C12.1395 19.1805 12.1667 19.1672 12.9282 19.1672L13.7168 19.1539L13.0505 18.8481C12.2619 18.4624 11.5412 17.8108 11.1876 17.1459C10.9293 16.6672 10.603 15.457 10.6982 15.364C10.7253 15.3241 11.0109 15.4038 11.3373 15.5102C12.2755 15.8427 12.3979 15.7629 11.8539 15.2044C10.8341 14.1937 10.5213 12.691 11.0109 11.2681L11.2421 10.6298L12.1395 11.4942C13.9752 13.2362 16.1373 14.2735 18.612 14.5794L19.2919 14.6592Z" fill="white"/>
</svg>
